<?xml version="1.0" encoding="UTF-8" standalone="no"?>
<svg xmlns:dc="http://purl.org/dc/elements/1.1/" xmlns:cc="http://creativecommons.org/ns#" xmlns:rdf="http://www.w3.org/1999/02/22-rdf-syntax-ns#" xmlns:svg="http://www.w3.org/2000/svg" xmlns="http://www.w3.org/2000/svg" viewBox="0 0 81.333336 11.466653" height="100%" width="100%" xml:space="preserve" id="svg2" version="1.1">
    <metadata id="metadata8">
        <rdf:RDF>
            <cc:Work rdf:about="">
                <dc:format>image/svg+xml</dc:format>
                <dc:type rdf:resource="http://purl.org/dc/dcmitype/StillImage" />
            </cc:Work>
        </rdf:RDF>
    </metadata>
    <defs id="defs6" />
    <g transform="matrix(1.3333333,0,0,-1.3333333,0,11.466653)" id="g10">
        <g transform="translate(49.769,8.6004)" id="g12">
            <path id="path14" style="fill:#86489c;fill-opacity:1;fill-rule:nonzero;stroke:none" d="m 0,0 -8.64,-8.6 h 2.558 L 2.559,0 Z" />
        </g>
        <g transform="translate(58.4971,8.6004)" id="g16">
            <path id="path18" style="fill:#86489c;fill-opacity:1;fill-rule:nonzero;stroke:none" d="m 0,0 -8.641,-8.6 h 2.558 l 8.586,8.545 V 0 Z" />
        </g>
        <g transform="translate(58.5831)" id="g20">
            <path id="path22" style="fill:#86489c;fill-opacity:1;fill-rule:nonzero;stroke:none" d="M 0,0 H 2.417 V 2.406 Z" />
        </g>
        <g transform="translate(32.3152,8.6004)" id="g24">
            <path id="path26" style="fill:#86489c;fill-opacity:1;fill-rule:nonzero;stroke:none" d="m 0,0 -8.641,-8.6 h 2.559 L 2.559,0 Z" />
        </g>
        <g transform="translate(23.5888,8.6004)" id="g28">
            <path id="path30" style="fill:#86489c;fill-opacity:1;fill-rule:nonzero;stroke:none" d="m 0,0 -8.64,-8.6 h 2.557 L 2.559,0 Z" />
        </g>
        <g transform="translate(6.1342,8.6004)" id="g32">
            <path id="path34" style="fill:#86489c;fill-opacity:1;fill-rule:nonzero;stroke:none" d="M 0,0 -6.134,-6.106 V -8.6 h 0.052 L 2.559,0 Z" />
        </g>
        <g transform="translate(14.8615,8.6004)" id="g36">
            <path id="path38" style="fill:#86489c;fill-opacity:1;fill-rule:nonzero;stroke:none" d="m 0,0 -8.641,-8.6 h 2.559 L 2.558,0 Z" />
        </g>
        <g transform="translate(41.0425,8.6004)" id="g40">
            <path id="path42" style="fill:#86489c;fill-opacity:1;fill-rule:nonzero;stroke:none" d="m 0,0 -8.641,-8.6 h 2.559 L 2.559,0 Z" />
        </g>
    </g>
</svg>