<?xml version="1.0" encoding="UTF-8" standalone="no"?>
<svg xmlns:dc="http://purl.org/dc/elements/1.1/" xmlns:cc="http://creativecommons.org/ns#" xmlns:rdf="http://www.w3.org/1999/02/22-rdf-syntax-ns#" xmlns:svg="http://www.w3.org/2000/svg" xmlns="http://www.w3.org/2000/svg" viewBox="0 0 304 152" height="100%" width="100%" xml:space="preserve" id="svg2" version="1.1">
    <metadata id="metadata8">
        <rdf:RDF>
            <cc:Work rdf:about="">
                <dc:format>image/svg+xml</dc:format>
                <dc:type rdf:resource="http://purl.org/dc/dcmitype/StillImage" />
            </cc:Work>
        </rdf:RDF>
    </metadata>
    <defs id="defs6">
        <clipPath id="clipPath24" clipPathUnits="userSpaceOnUse">
            <path id="path22" d="M 0,0 H 228 V 114 H 0 Z" />
        </clipPath>
    </defs>
    <g transform="matrix(1.3333333,0,0,-1.3333333,0,152)" id="g10">
        <path id="path12" style="fill:#cebcdb;fill-opacity:1;fill-rule:nonzero;stroke:none" d="M 0,0 H 228 V 114 H 0 Z" />
        <g transform="translate(227.6784,114.0003)" id="g14">
            <path id="path16" style="fill:#85489b;fill-opacity:1;fill-rule:nonzero;stroke:none" d="m 0,0 -113.999,-114 h 0.586 L 0.321,-0.266 V 0 Z m -2,0 -114,-114 h 0.586 l 114,114 z m -2,0 -114,-114 h 0.586 l 114,114 z M -5.999,0 -120,-114 h 0.586 L -5.413,0 Z M -8,0 -121.999,-114 h 0.585 l 114,114 z m -2,0 -113.999,-114 h 0.586 L -9.414,0 Z m -2,0 -114,-114 h 0.586 l 114,114 z M -13.999,0 -128,-114 h 0.586 l 114,114 z m -2,0 L -130,-114 h 0.586 L -15.413,0 Z M -18,0 -131.999,-114 h 0.586 L -17.414,0 Z m -2,0 -114,-114 h 0.586 l 114,114 z m -2,0 -114,-114 h 0.586 l 114,114 z M -23.999,0 -138,-114 h 0.586 L -23.413,0 Z M -26,0 -139.999,-114 h 0.585 l 114,114 z m -2,0 -113.999,-114 h 0.586 L -27.414,0 Z m -2,0 -114,-114 h 0.586 l 114,114 z M -31.999,0 -146,-114 h 0.586 l 114,114 z m -2,0 L -148,-114 h 0.586 L -33.413,0 Z M -36,0 -149.999,-114 h 0.586 L -35.414,0 Z m -2,0 -114,-114 h 0.586 l 114,114 z m -2,0 -114,-114 h 0.586 l 114,114 z M -41.999,0 -156,-114 h 0.586 L -41.413,0 Z M -44,0 -157.999,-114 h 0.585 l 114,114 z m -2,0 -113.999,-114 h 0.586 L -45.414,0 Z m -2,0 -114,-114 h 0.586 l 114,114 z M -49.999,0 -164,-114 h 0.586 l 114,114 z m -2,0 L -166,-114 h 0.586 L -51.413,0 Z M -54,0 -167.999,-114 h 0.586 L -53.414,0 Z m -2,0 -114,-114 h 0.586 l 114,114 z m -2,0 -114,-114 h 0.586 l 114,114 z M -59.999,0 -174,-114 h 0.586 L -59.413,0 Z M -62,0 -175.999,-114 h 0.585 l 114,114 z m -2,0 -113.999,-114 h 0.586 L -63.414,0 Z m -2,0 -114,-114 h 0.586 l 114,114 z M -67.999,0 -182,-114 h 0.586 l 114,114 z m -2,0 L -184,-114 h 0.586 L -69.413,0 Z M -72,0 -185.999,-114 h 0.586 L -71.414,0 Z m -2,0 -114,-114 h 0.586 l 114,114 z m -2,0 -114,-114 h 0.586 l 114,114 z M -77.999,0 -192,-114 h 0.586 L -77.413,0 Z M -80,0 -193.999,-114 h 0.585 l 114,114 z m -2,0 -113.999,-114 h 0.586 L -81.414,0 Z m -2,0 -114,-114 h 0.586 l 114,114 z M -85.999,0 -200,-114 h 0.586 l 114,114 z m -2,0 L -202,-114 h 0.586 L -87.413,0 Z M -90,0 -203.999,-114 h 0.586 L -89.414,0 Z m -2,0 -114,-114 h 0.586 l 114,114 z m -2,0 -114,-114 h 0.586 l 114,114 z M -95.999,0 -210,-114 h 0.586 L -95.413,0 Z M -98,0 -211.999,-114 h 0.585 l 114,114 z m -2,0 -113.999,-114 h 0.586 L -99.414,0 Z m -2,0 -114,-114 h 0.586 l 114,114 z M -103.999,0 -218,-114 h 0.586 l 114,114 z m -2,0 L -220,-114 h 0.586 L -105.413,0 Z M -108,0 -221.999,-114 h 0.586 L -107.414,0 Z m -2,0 -114,-114 h 0.586 l 114,114 z m -2,0 -114,-114 h 0.586 l 114,114 z m -1.999,0 -113.679,-113.68 V -114 h 0.264 L -113.413,0 Z M -116,0 -227.678,-111.68 v -0.586 L -115.414,0 Z m -2,0 -109.678,-109.68 v -0.586 L -117.414,0 Z m -2,0 -107.678,-107.68 v -0.586 L -119.414,0 Z m -1.999,0 -105.679,-105.68 v -0.586 L -121.414,0 Z m -2,0 -103.679,-103.68 v -0.586 L -123.413,0 Z M -126,0 -227.678,-101.68 v -0.586 L -125.414,0 Z m -2,0 -99.678,-99.68 v -0.586 L -127.414,0 Z m -2,0 -97.678,-97.68 v -0.586 L -129.414,0 Z m -1.999,0 -95.679,-95.68 v -0.586 L -131.413,0 Z M -134,0 -227.678,-93.68 v -0.586 L -133.414,0 Z m -2,0 -91.678,-91.68 v -0.586 L -135.414,0 Z m -2,0 -89.678,-89.68 v -0.586 L -137.414,0 Z m -1.999,0 -87.679,-87.68 v -0.586 L -139.414,0 Z m -2,0 -85.679,-85.68 v -0.586 L -141.413,0 Z M -144,0 -227.678,-83.68 v -0.586 L -143.414,0 Z m -2,0 -81.678,-81.68 v -0.586 L -145.414,0 Z m -2,0 -79.678,-79.68 v -0.586 L -147.414,0 Z m -1.999,0 -77.679,-77.68 v -0.586 L -149.413,0 Z M -152,0 -227.678,-75.68 v -0.586 L -151.414,0 Z m -2,0 -73.678,-73.68 v -0.586 L -153.414,0 Z m -2,0 -71.678,-71.68 v -0.586 L -155.414,0 Z m -1.999,0 -69.679,-69.68 v -0.586 L -157.414,0 Z m -2,0 -67.679,-67.68 v -0.586 L -159.413,0 Z M -162,0 -227.678,-65.68 v -0.586 L -161.414,0 Z m -2,0 -63.678,-63.68 v -0.586 L -163.414,0 Z m -2,0 -61.678,-61.68 v -0.586 L -165.414,0 Z m -1.999,0 -59.679,-59.68 v -0.586 L -167.413,0 Z M -170,0 -227.678,-57.68 v -0.586 L -169.414,0 Z m -2,0 -55.678,-55.68 v -0.586 L -171.414,0 Z m -2,0 -53.678,-53.68 v -0.586 L -173.414,0 Z m -1.999,0 -51.679,-51.68 v -0.586 L -175.414,0 Z m -2,0 -49.679,-49.68 v -0.586 L -177.413,0 Z M -180,0 -227.678,-47.68 v -0.586 L -179.414,0 Z m -2,0 -45.678,-45.68 v -0.586 L -181.414,0 Z m -2,0 -43.678,-43.68 v -0.586 L -183.414,0 Z m -1.999,0 -41.679,-41.68 v -0.586 L -185.413,0 Z M -188,0 -227.678,-39.68 v -0.586 L -187.414,0 Z m -2,0 -37.678,-37.68 v -0.586 L -189.414,0 Z m -2,0 -35.678,-35.68 v -0.586 L -191.414,0 Z m -1.999,0 -33.679,-33.68 v -0.586 L -193.414,0 Z m -2,0 -31.679,-31.68 v -0.586 L -195.413,0 Z M -198,0 -227.678,-29.68 v -0.586 L -197.414,0 Z m -2,0 -27.678,-27.68 v -0.586 L -199.414,0 Z m -2,0 -25.678,-25.68 v -0.586 L -201.414,0 Z m -1.999,0 -23.679,-23.68 v -0.586 L -203.413,0 Z M -206,0 -227.678,-21.68 v -0.586 L -205.414,0 Z m -2,0 -19.678,-19.68 v -0.586 L -207.414,0 Z m -2,0 -17.678,-17.68 v -0.586 L -209.414,0 Z m -1.999,0 -15.679,-15.68 v -0.586 L -211.414,0 Z m -2,0 -13.679,-13.68 v -0.586 L -213.413,0 Z M -216,0 -227.678,-11.68 v -0.586 L -215.414,0 Z m -2,0 -9.678,-9.68 v -0.586 L -217.414,0 Z m -2,0 -7.678,-7.68 V -8.266 L -219.414,0 Z m -1.999,0 -5.679,-5.68 V -6.266 L -221.413,0 Z M -224,0 -227.678,-3.68 V -4.266 L -223.414,0 Z m -2,0 -1.678,-1.68 V -2.266 L -225.414,0 Z m -1.678,0 V -0.266 L -227.414,0 Z M -112,-114 h 0.586 L 0.321,-2.266 v 0.586 z m 2,0 h 0.586 L 0.321,-4.266 v 0.586 z m 2,0 h 0.586 L 0.321,-6.266 v 0.586 z m 2.001,0 h 0.586 L 0.321,-8.266 v 0.586 z m 2,0 h 0.585 L 0.321,-10.266 v 0.586 z m 1.999,0 h 0.586 L 0.321,-12.266 v 0.586 z m 2,0 h 0.586 l 99.735,99.734 v 0.586 z m 2,0 h 0.586 l 97.735,97.734 v 0.586 z m 2.001,0 h 0.586 l 95.734,95.734 v 0.586 z m 1.999,0 h 0.586 l 93.735,93.734 v 0.586 z m 2,0 h 0.586 l 91.735,91.734 v 0.586 z m 2,0 h 0.586 l 89.735,89.734 v 0.586 z m 2.001,0 h 0.586 l 87.734,87.734 v 0.586 z m 2,0 h 0.585 l 85.735,85.734 v 0.586 z m 1.999,0 h 0.586 l 83.735,83.734 v 0.586 z m 2,0 h 0.586 l 81.735,81.734 v 0.586 z m 2,0 h 0.586 l 79.735,79.734 v 0.586 z m 2.001,0 h 0.586 l 77.734,77.734 v 0.586 z m 1.999,0 h 0.586 l 75.735,75.734 v 0.586 z m 2,0 h 0.586 l 73.735,73.734 v 0.586 z m 2,0 h 0.586 l 71.735,71.734 v 0.586 z m 2.001,0 h 0.586 l 69.734,69.734 v 0.586 z m 2,0 h 0.585 l 67.735,67.734 v 0.586 z m 1.999,0 h 0.586 l 65.735,65.734 v 0.586 z m 2,0 h 0.586 l 63.735,63.734 v 0.586 z m 2,0 h 0.586 l 61.735,61.734 v 0.586 z m 2.001,0 h 0.586 l 59.734,59.734 v 0.586 z m 1.999,0 h 0.586 l 57.735,57.734 v 0.586 z m 2,0 h 0.586 l 55.735,55.734 v 0.586 z m 2,0 h 0.586 l 53.735,53.734 v 0.586 z m 2.001,0 h 0.586 l 51.734,51.734 v 0.586 z m 2,0 h 0.585 l 49.735,49.734 v 0.586 z m 1.999,0 h 0.586 l 47.735,47.734 v 0.586 z m 2,0 h 0.586 l 45.735,45.734 v 0.586 z m 2,0 h 0.586 l 43.735,43.734 v 0.586 z m 2.001,0 h 0.586 l 41.734,41.734 v 0.586 z m 1.999,0 h 0.586 l 39.735,39.734 v 0.586 z m 2,0 h 0.586 l 37.735,37.734 v 0.586 z m 2,0 h 0.586 l 35.735,35.734 v 0.586 z m 2.001,0 h 0.586 l 33.734,33.734 v 0.586 z m 2,0 h 0.585 l 31.735,31.734 v 0.586 z m 1.999,0 h 0.586 l 29.735,29.734 v 0.586 z m 2,0 h 0.586 l 27.735,27.734 v 0.586 z m 2,0 h 0.586 l 25.735,25.734 v 0.586 z m 2.001,0 h 0.586 l 23.734,23.734 v 0.586 z m 1.999,0 h 0.586 l 21.735,21.734 v 0.586 z m 2,0 h 0.586 l 19.735,19.734 v 0.586 z m 2,0 h 0.586 l 17.735,17.734 v 0.586 z m 2.001,0 h 0.586 l 15.734,15.734 v 0.586 z m 2,0 h 0.585 l 13.735,13.734 v 0.586 z m 1.999,0 h 0.586 l 11.735,11.734 v 0.586 z m 2,0 h 0.586 l 9.735,9.734 v 0.586 z m 2,0 h 0.586 l 7.735,7.734 v 0.586 z m 2.001,0 h 0.586 l 5.734,5.734 v 0.586 z m 1.999,0 h 0.586 l 3.735,3.734 v 0.586 z m 2,0 h 0.586 l 1.735,1.734 v 0.586 z m 2,0 h 0.321 v 0.32 z" />
        </g>
        <g id="g18">
            <g clip-path="url(#clipPath24)" id="g20">
                <g transform="translate(81.2404,41.7044)" id="g26">
                    <path id="path28" style="fill:#ffffff;fill-opacity:1;fill-rule:nonzero;stroke:none" d="m 0,0 v 40.896 h -9.936 v -50.4 h 29.16 V 0 Z M 48.743,26.496 V 7.056 c 0,-6.264 -3.384,-8.928 -7.92,-8.928 -4.176,0 -7.128,2.52 -7.128,7.416 V 26.496 H 24.407 V 4.392 c 0,-9.576 5.976,-14.904 13.608,-14.904 4.824,0 8.568,1.8 10.728,5.04 v -4.032 h 9.288 v 36 z m 55.44,1.008 c -4.896,0 -8.496,-1.944 -10.728,-5.184 -2.016,3.312 -5.328,5.184 -9.792,5.184 -4.608,0 -7.992,-1.8 -10.008,-4.824 v 3.816 h -9.288 v -36 h 9.288 v 20.232 c 0,5.4 2.808,8.136 6.768,8.136 3.888,0 6.048,-2.592 6.048,-6.84 V -9.504 h 9.288 v 20.232 c 0,5.4 2.592,8.136 6.696,8.136 3.888,0 6.048,-2.592 6.048,-6.84 V -9.504 h 9.288 v 22.176 c 0,9 -5.4,14.832 -13.608,14.832" />
                </g>
                <g transform="translate(38.6889,46.3844)" id="g30">
                    <path id="path32" style="fill:#782b8f;fill-opacity:1;fill-rule:nonzero;stroke:none" d="m 0,0 h 27.144 c 0.216,1.224 0.36,2.448 0.36,3.816 0,10.584 -7.56,19.008 -18.216,19.008 -11.304,0 -19.008,-8.28 -19.008,-19.008 0,-10.728 7.632,-19.008 19.728,-19.008 6.912,0 12.312,2.808 15.696,7.704 l -7.488,4.32 c -1.584,-2.088 -4.464,-3.6 -8.064,-3.6 C 5.256,-6.768 1.296,-4.752 0,0 m -0.144,7.2 c 1.08,4.608 4.464,7.272 9.432,7.272 3.888,0 7.776,-2.088 8.928,-7.272 z" />
                </g>
            </g>
        </g>
    </g>
</svg>