<?xml version="1.0" encoding="UTF-8" standalone="no"?>
<svg xmlns:dc="http://purl.org/dc/elements/1.1/" xmlns:cc="http://creativecommons.org/ns#" xmlns:rdf="http://www.w3.org/1999/02/22-rdf-syntax-ns#" xmlns:svg="http://www.w3.org/2000/svg" xmlns="http://www.w3.org/2000/svg" viewBox="0 0 186.66667 93.333603" height="100%" width="100%" xml:space="preserve" id="svg2" version="1.1">
    <metadata id="metadata8">
        <rdf:RDF>
            <cc:Work rdf:about="">
                <dc:format>image/svg+xml</dc:format>
                <dc:type rdf:resource="http://purl.org/dc/dcmitype/StillImage" />
            </cc:Work>
        </rdf:RDF>
    </metadata>
    <defs id="defs6">
        <clipPath id="clipPath24" clipPathUnits="userSpaceOnUse">
            <path id="path22" d="M 0,0 H 140 V 70 H 0 Z" />
        </clipPath>
    </defs>
    <g transform="matrix(1.3333333,0,0,-1.3333333,0,93.3336)" id="g10">
        <path id="path12" style="fill:#cebcdb;fill-opacity:1;fill-rule:nonzero;stroke:none" d="M 0,0 H 140 V 70 H 0 Z" />
        <g transform="translate(139.6791,70.0002)" id="g14">
            <path id="path16" style="fill:#85489b;fill-opacity:1;fill-rule:nonzero;stroke:none" d="m 0,0 -70,-70 h 0.586 L 0.321,-0.266 V 0 Z M -2.001,0 -72,-70 h 0.586 L -1.415,0 Z m -2,0 -70,-70 h 0.586 l 70,70 z M -6,0 -76,-70 h 0.585 L -5.414,0 Z m -2,0 -70,-70 h 0.586 l 70,70 z M -10.001,0 -80,-70 h 0.586 L -9.415,0 Z m -2,0 -70,-70 h 0.586 l 70,70 z M -14,0 -84.001,-70 h 0.586 l 70.001,70 z m -2,0 -70,-70 h 0.586 l 70,70 z m -2,0 -70,-70 h 0.586 l 70,70 z M -20.001,0 -90,-70 h 0.586 L -19.415,0 Z M -22,0 -92.001,-70 h 0.586 l 70,70 z m -2,0 -70,-70 h 0.585 l 70.001,70 z m -2,0 -70,-70 h 0.586 l 70,70 z M -28.001,0 -98,-70 h 0.586 l 69.999,70 z m -2,0 -70,-70 h 0.586 l 70,70 z M -32,0 -102.001,-70 h 0.586 l 70.001,70 z m -2,0 -70,-70 h 0.586 l 70,70 z m -2,0 -70,-70 h 0.586 l 70,70 z M -38.001,0 -108,-70 h 0.586 L -37.415,0 Z M -40,0 -110.001,-70 h 0.586 l 70,70 z m -2,0 -70,-70 h 0.585 l 70.001,70 z m -2,0 -70,-70 h 0.586 l 70,70 z M -46.001,0 -116,-70 h 0.586 l 69.999,70 z m -2,0 -70,-70 h 0.586 l 70,70 z M -50,0 -120.001,-70 h 0.586 l 70.001,70 z m -2,0 -70,-70 h 0.586 l 70,70 z m -2,0 -70,-70 h 0.586 l 70,70 z M -56.001,0 -126,-70 h 0.586 L -55.415,0 Z M -58,0 -128.001,-70 h 0.586 l 70,70 z m -2,0 -70,-70 h 0.585 l 70.001,70 z m -2,0 -70,-70 h 0.586 l 70,70 z M -64.001,0 -134,-70 h 0.586 l 69.999,70 z m -2,0 -70,-70 h 0.586 l 70,70 z M -68,0 -138.001,-70 h 0.586 l 70.001,70 z m -2,0 -69.679,-69.68 V -70 h 0.265 l 70,70 z m -2,0 -67.679,-67.68 v -0.586 L -71.414,0 Z m -2.001,0 -65.678,-65.68 v -0.586 L -73.415,0 Z M -76,0 -139.679,-63.68 v -0.585 L -75.415,0 Z m -2,0 -61.679,-61.68 v -0.586 L -77.414,0 Z m -2,0 -59.679,-59.68 v -0.586 L -79.414,0 Z m -2.001,0 -57.678,-57.68 v -0.586 L -81.415,0 Z m -2,0 -55.678,-55.68 v -0.586 L -83.415,0 Z M -86,0 -139.679,-53.68 v -0.586 L -85.414,0 Z m -2,0 -51.679,-51.68 v -0.586 L -87.414,0 Z m -2,0 -49.679,-49.68 v -0.586 L -89.414,0 Z m -2.001,0 -47.678,-47.68 v -0.586 L -91.415,0 Z M -94,0 -139.679,-45.68 v -0.585 L -93.415,0 Z m -2,0 -43.679,-43.68 v -0.586 L -95.414,0 Z m -2,0 -41.679,-41.68 v -0.586 L -97.414,0 Z m -2.001,0 -39.678,-39.68 v -0.586 L -99.415,0 Z m -2,0 -37.678,-37.68 v -0.586 L -101.415,0 Z M -104,0 -139.679,-35.68 v -0.586 L -103.414,0 Z m -2,0 -33.679,-33.68 v -0.586 L -105.414,0 Z m -2,0 -31.679,-31.68 v -0.586 L -107.414,0 Z m -2.001,0 -29.678,-29.68 v -0.586 L -109.415,0 Z M -112,0 -139.679,-27.68 v -0.585 L -111.415,0 Z m -2,0 -25.679,-25.68 v -0.586 L -113.414,0 Z m -2,0 -23.679,-23.68 v -0.586 L -115.414,0 Z m -2.001,0 -21.678,-21.68 v -0.586 L -117.415,0 Z m -2,0 -19.678,-19.68 v -0.586 L -119.415,0 Z M -122,0 -139.679,-17.68 v -0.586 L -121.414,0 Z m -2,0 -15.679,-15.68 v -0.586 L -123.414,0 Z m -2,0 -13.679,-13.68 v -0.586 L -125.414,0 Z m -2.001,0 -11.678,-11.68 v -0.586 L -127.415,0 Z m -1.999,0 -9.679,-9.68 v -0.585 L -129.415,0 Z m -2,0 -7.679,-7.68 V -8.266 L -131.414,0 Z m -2,0 -5.679,-5.68 V -6.266 L -133.414,0 Z m -2.001,0 -3.678,-3.68 V -4.266 L -135.415,0 Z m -2,0 -1.678,-1.68 V -2.266 L -137.415,0 Z m -1.678,0 V -0.266 L -139.414,0 Z M -68,-70 h 0.586 L 0.321,-2.266 v 0.586 z m 1.999,0 h 0.586 L 0.321,-4.266 v 0.586 z m 2,0 h 0.586 L 0.321,-6.266 v 0.586 z m 2.001,0 h 0.586 L 0.321,-8.266 v 0.586 z m 2,0 h 0.586 l 59.735,59.735 v 0.585 z m 2,0 h 0.585 l 57.736,57.734 v 0.586 z m 1.999,0 h 0.586 l 55.736,55.734 v 0.586 z m 2.001,0 h 0.586 l 53.735,53.734 v 0.586 z m 2,0 h 0.586 l 51.735,51.734 v 0.586 z m 2,0 h 0.586 l 49.735,49.734 v 0.586 z m 1.999,0 h 0.586 l 47.736,47.734 v 0.586 z m 2,0 h 0.586 l 45.736,45.734 v 0.586 z m 2.001,0 h 0.586 l 43.735,43.734 v 0.586 z m 2,0 h 0.586 l 41.735,41.735 v 0.585 z m 2,0 h 0.585 l 39.736,39.734 v 0.586 z m 1.999,0 h 0.586 l 37.736,37.734 v 0.586 z m 2.001,0 h 0.586 l 35.735,35.734 v 0.586 z m 2,0 h 0.586 l 33.735,33.734 v 0.586 z m 2,0 h 0.586 l 31.735,31.734 v 0.586 z m 1.999,0 h 0.586 l 29.736,29.734 v 0.586 z m 2,0 h 0.586 l 27.736,27.734 v 0.586 z m 2.001,0 h 0.586 l 25.735,25.734 v 0.586 z m 2,0 h 0.586 l 23.735,23.735 v 0.585 z m 2,0 h 0.585 l 21.736,21.734 v 0.586 z m 1.999,0 h 0.586 l 19.736,19.734 v 0.586 z m 2.001,0 h 0.586 l 17.735,17.734 v 0.586 z m 2,0 h 0.586 l 15.735,15.734 v 0.586 z m 2,0 h 0.586 l 13.735,13.734 v 0.586 z m 1.999,0 h 0.586 l 11.736,11.734 v 0.586 z m 2,0 h 0.586 l 9.736,9.734 v 0.586 z M -8,-70 h 0.586 l 7.735,7.734 v 0.586 z m 2,0 h 0.586 l 5.735,5.735 v 0.585 z m 1.999,0 h 0.586 l 3.736,3.734 v 0.586 z m 2,0 h 0.586 l 1.736,1.734 v 0.586 z M 0,-70 h 0.321 v 0.32 z" />
        </g>
        <g id="g18">
            <g clip-path="url(#clipPath24)" id="g20">
                <g transform="translate(49.5253,25.34)" id="g26">
                    <path id="path28" style="fill:#ffffff;fill-opacity:1;fill-rule:nonzero;stroke:none" d="M 0,0 V 25.56 H -6.21 V -5.94 H 12.015 V 0 Z M 30.464,16.56 V 4.41 c 0,-3.915 -2.115,-5.58 -4.95,-5.58 -2.61,0 -4.455,1.575 -4.455,4.635 V 16.56 H 15.254 V 2.745 c 0,-5.985 3.735,-9.315 8.505,-9.315 3.015,0 5.355,1.125 6.705,3.15 v -2.52 h 5.805 v 22.5 z m 34.65,0.63 c -3.06,0 -5.31,-1.215 -6.705,-3.24 -1.26,2.07 -3.33,3.24 -6.12,3.24 -2.88,0 -4.995,-1.125 -6.255,-3.015 v 2.385 h -5.805 v -22.5 h 5.805 V 6.705 c 0,3.375 1.755,5.085 4.23,5.085 2.43,0 3.78,-1.62 3.78,-4.275 V -5.94 h 5.805 V 6.705 c 0,3.375 1.62,5.085 4.185,5.085 2.43,0 3.78,-1.62 3.78,-4.275 V -5.94 h 5.805 V 7.92 c 0,5.625 -3.375,9.27 -8.505,9.27" />
                </g>
                <g transform="translate(22.9305,28.265)" id="g30">
                    <path id="path32" style="fill:#782b8f;fill-opacity:1;fill-rule:nonzero;stroke:none" d="m 0,0 h 16.965 c 0.135,0.765 0.225,1.53 0.225,2.385 0,6.615 -4.725,11.88 -11.385,11.88 -7.065,0 -11.88,-5.175 -11.88,-11.88 0,-6.705 4.77,-11.88 12.33,-11.88 4.32,0 7.695,1.755 9.81,4.815 l -4.68,2.7 C 10.395,-3.285 8.595,-4.23 6.345,-4.23 3.285,-4.23 0.81,-2.97 0,0 m -0.09,4.5 c 0.675,2.88 2.79,4.545 5.895,4.545 2.43,0 4.86,-1.305 5.58,-4.545 z" />
                </g>
            </g>
        </g>
    </g>
</svg>